Coordinates
version=1
nRows=12
nColumns=24
inDegrees=yes

Units are S.I. units (second, meters, Newtons, ...)
If the header above contains a line with 'inDegrees', this indicates whether rotational values are in degrees (yes) or radians (no).

endheader
time	pelvis_tilt	pelvis_list	pelvis_rotation	pelvis_tx	pelvis_ty	pelvis_tz	hip_flexion_r	hip_adduction_r	hip_rotation_r	knee_angle_r	ankle_angle_r	subtalar_angle_r	mtp_angle_r	hip_flexion_l	hip_adduction_l	hip_rotation_l	knee_angle_l	ankle_angle_l	subtalar_angle_l	mtp_angle_l	lumbar_extension	lumbar_bending	lumbar_rotation
      1.00666667	      1.66354609	      0.17085524	      0.07173541	     -0.10558746	      0.73005428	      0.35131746	     32.00914181	     -3.83753474	     -7.91826137	    -39.34852593	      3.37810745	    -13.61597684	      0.00000000	     -5.77829827	      3.66874415	    -13.40521284	    -13.82694043	     16.92912571	     -7.18126663	      0.00000000	    -13.51622619	     -2.78362482	      1.43634504
      1.01333333	      1.79642547	      0.08897461	      0.57363734	     -0.09751666	      0.72924142	      0.35114466	     31.35852059	     -3.74218275	     -8.66150790	    -35.95203891	      4.16230504	    -12.11473660	      0.00000000	     -6.70265142	      3.45119374	    -13.09003046	    -13.69347008	     17.39574974	     -6.40399558	      0.00000000	    -13.70449455	     -2.61096952	      0.79512773
      1.02000000	      1.63767627	      0.23030254	      0.78210770	     -0.08979965	      0.72782019	      0.35121261	     31.19571037	     -3.66187581	     -8.92114751	    -32.69993630	      4.38290023	    -11.29722228	      0.00000000	     -7.18831979	      3.51189909	    -13.04118772	    -13.75133896	     17.64720875	     -6.21404311	      0.00000000	    -13.57928796	     -2.72090901	      0.66163154
      1.02666667	      1.61174127	      0.35686000	      1.20046624	     -0.08184255	      0.72647725	      0.35112341	     30.82687869	     -3.78196457	     -9.84353200	    -29.53592625	      5.21050373	     -9.47832715	      0.00000000	     -7.80842687	      3.48491790	    -12.90183157	    -13.85642895	     18.13568698	     -5.49331298	      0.00000000	    -13.60137865	     -2.83480167	      0.16326238
      1.03333333	      1.53600522	      0.45968630	      1.48344576	     -0.07390261	      0.72504756	      0.35129447	     30.44436353	     -3.67137499	    -10.44601186	    -26.25471328	      5.45725594	     -8.43850652	      0.00000000	     -8.38631936	      3.44982535	    -12.78013274	    -13.94001398	     18.39646084	     -5.23732296	      0.00000000	    -13.56427609	     -2.92610608	      0.00145738
      1.04000000	      1.46144466	      0.57519262	      1.87110037	     -0.06581372	      0.72353131	      0.35135837	     30.07032543	     -3.67258242	    -11.40978408	    -23.17903370	      6.02754815	     -6.75084712	      0.00000000	     -8.95539198	      3.39566030	    -12.57475817	    -14.06830733	     18.78089360	     -4.69377674	      0.00000000	    -13.50721654	     -3.02655172	     -0.41394603
      1.04666667	      1.41865810	      0.67981009	      2.21022961	     -0.05762310	      0.72200124	      0.35157022	     29.64905329	     -3.56946533	    -12.29680837	    -20.21057649	      6.33061185	     -5.41553252	      0.00000000	     -9.54406400	      3.31058016	    -12.38963163	    -14.24530578	     19.05776655	     -4.34505460	      0.00000000	    -13.47803025	     -3.11947289	     -0.61129232
      1.05333333	      1.33133407	      0.79295476	      2.53991030	     -0.04934816	      0.72035610	      0.35179796	     29.31329026	     -3.45987037	    -13.31874086	    -17.46576704	      6.70755959	     -3.90658348	      0.00000000	    -10.07589445	      3.23833196	    -12.19298945	    -14.44964379	     19.35601376	     -3.93161141	      0.00000000	    -13.39908372	     -3.23124562	     -0.88660586
      1.06000000	      1.29833723	      0.86872548	      2.88406655	     -0.04088177	      0.71876508	      0.35217490	     28.93906709	     -3.28145775	    -14.45435144	    -14.99513998	      7.01954066	     -2.50556827	      0.00000000	    -10.66467427	      3.07889679	    -11.98465664	    -14.68720306	     19.61184851	     -3.54875213	      0.00000000	    -13.35321707	     -3.30766638	     -1.10906214
      1.06666667	      1.15598126	      1.00059888	      3.06249064	     -0.03240954	      0.71697396	      0.35280550	     28.79258235	     -3.01671635	    -15.10628144	    -12.90925377	      7.09136892	     -1.65718201	      0.00000000	    -11.11657148	      3.01886136	    -11.81319498	    -14.98200731	     19.71507709	     -3.37795741	      0.00000000	    -13.15744028	     -3.54149664	     -1.10897486
      1.07333333	      1.30223586	      0.93091006	      3.54608143	     -0.02349042	      0.71559364	      0.35301308	     28.31959462	     -2.78279676	    -16.81918157	    -11.21085218	      7.51746537	     -0.15906719	      0.00000000	    -11.87108005	      2.62801147	    -11.56824122	    -15.31014974	     19.97264403	     -2.85643808	      0.00000000	    -13.26104037	     -3.37865602	     -1.49353715
      1.08000000	      1.23409972	      1.00551848	      3.89154460	     -0.01467158	      0.71388991	      0.35337323	     28.33732902	     -2.68712739	    -18.26682062	    -10.24774090	      8.24858420	      1.64493211	      0.00000000	    -12.28712534	      2.40535379	    -11.42363236	    -15.85598907	     20.21073310	     -2.20391635	      0.00000000	    -13.11140028	     -3.45538515	     -1.80063549
